<svg width="44" height="44" viewBox="0 0 44 44" fill="none" xmlns="http://www.w3.org/2000/svg">
<rect x="1" y="1" width="42" height="42" rx="21" fill="#181C2E"/>
<rect x="1" y="1" width="42" height="42" rx="21" stroke="#2A3050" stroke-width="2"/>
<g clip-path="url(#clip0_152_275)">
<g clip-path="url(#clip1_152_275)">
<path d="M14.574 11.8997C14.9433 11.8965 15.3092 11.9699 15.6486 12.1154C15.988 12.2608 16.2936 12.4751 16.546 12.7447C17.07 13.2697 17.388 13.9727 17.353 14.7167C17.3513 15.0889 17.276 15.4571 17.1313 15.8C16.9866 16.1429 16.7755 16.4538 16.51 16.7147C15.984 17.2407 15.314 17.5247 14.608 17.5247H14.545L14.412 17.5257C13.744 17.5187 13.064 17.2077 12.572 16.7147C12.3059 16.4532 12.0944 16.1415 11.9497 15.7977C11.8049 15.4539 11.7299 15.0847 11.729 14.7117C11.729 13.9727 12.01 13.2697 12.571 12.7087C12.8343 12.4475 13.1471 12.2414 13.491 12.1025C13.835 11.9635 14.2031 11.8946 14.574 11.8997ZM14.574 12.7777C14.022 12.7777 13.54 12.9727 13.188 13.3247C13.003 13.5051 12.8561 13.7208 12.7562 13.9591C12.6562 14.1973 12.6051 14.4533 12.606 14.7117C12.606 15.2297 12.801 15.7437 13.184 16.0957L13.187 16.0987C13.54 16.4507 14.056 16.6457 14.54 16.6457H14.735C15.173 16.6197 15.581 16.4107 15.894 16.0987L15.896 16.0957C16.28 15.7437 16.475 15.2297 16.475 14.7117C16.4759 14.4534 16.4249 14.1975 16.3251 13.9593C16.2253 13.721 16.0787 13.5052 15.894 13.3247C15.5433 12.9755 15.0689 12.779 14.574 12.7777ZM15.897 18.0017C16.495 18.0017 17.013 18.5207 17.014 19.1177V31.0177C17.014 31.5827 16.493 32.0997 15.897 32.1007H13.185C12.8908 32.0943 12.6103 31.9746 12.4022 31.7665C12.1941 31.5583 12.0744 31.2779 12.068 30.9837V19.1177C12.068 18.4887 12.552 18.0017 13.151 18.0017H15.897ZM13.151 18.8797C13.101 18.8797 13.051 18.9047 13.011 18.9507C12.9704 18.997 12.9474 19.0561 12.946 19.1177V30.9837C12.946 31.0357 12.973 31.0967 13.022 31.1457C13.072 31.1957 13.132 31.2217 13.185 31.2227H15.897C15.957 31.2227 16.017 31.1987 16.064 31.1577C16.0854 31.1409 16.1028 31.1197 16.1153 31.0955C16.1277 31.0714 16.1348 31.0448 16.136 31.0177V19.1177C16.1324 19.0559 16.1052 18.9979 16.06 18.9557C16.0175 18.9103 15.9591 18.883 15.897 18.8797H13.151ZM27.422 17.6657C30.157 17.6657 32.268 19.8127 32.269 22.5787V31.3257C32.269 31.5277 32.169 31.7217 32.027 31.8627C31.8864 32.0103 31.6937 32.0972 31.49 32.1047H28.1C27.8963 32.0973 27.7035 32.0104 27.563 31.8627C27.4161 31.7218 27.33 31.5291 27.323 31.3257V24.0367C27.323 23.4387 27.189 22.9987 26.881 22.7217L26.877 22.7177C26.6987 22.5418 26.4874 22.4029 26.2551 22.309C26.0229 22.2151 25.7745 22.1681 25.524 22.1707C24.536 22.1707 23.76 23.0007 23.76 24.0707V31.3937C23.7588 31.495 23.7346 31.5947 23.6892 31.6853C23.6438 31.7759 23.5784 31.855 23.498 31.9167C23.3512 32.0345 23.1692 32.0999 22.981 32.1027H19.252C19.0641 32.0997 18.8826 32.0343 18.736 31.9167C18.6558 31.8549 18.5906 31.7758 18.5454 31.6852C18.5002 31.5946 18.4761 31.4949 18.475 31.3937V18.7487C18.475 18.5267 18.585 18.3407 18.733 18.2117C18.8763 18.0839 19.0601 18.0106 19.252 18.0047H22.642C22.845 18.0047 23.038 18.1047 23.179 18.2457C23.3258 18.3863 23.4119 18.5786 23.419 18.7817V19.0067C24.2983 18.1463 25.4798 17.6648 26.71 17.6657H27.422ZM26.744 18.5437C25.521 18.5437 24.366 19.1397 23.707 20.0617L23.702 20.0677L23.696 20.0737L23.662 20.1067L22.747 21.0227L22.577 21.1927V18.8827H19.385V31.2257H22.914V24.0697C22.914 22.5257 24.074 21.3267 25.554 21.2917H25.557C25.9226 21.29 26.2849 21.3607 26.623 21.4997C26.9611 21.6388 27.2683 21.8433 27.527 22.1017C27.991 22.5667 28.199 23.2057 28.199 24.0357L28.233 31.2247H31.39V22.5777C31.39 20.3247 29.668 18.5427 27.455 18.5427H26.743L26.744 18.5437Z" fill="#F0F0F0" stroke="#F0F0F0" stroke-width="0.2"/>
</g>
</g>
<defs>
<clipPath id="clip0_152_275">
<rect width="24" height="24" fill="white" transform="translate(10 10)"/>
</clipPath>
<clipPath id="clip1_152_275">
<rect width="24" height="24" fill="white" transform="translate(10 10)"/>
</clipPath>
</defs>
</svg>
