<svg width="24" height="24" viewBox="0 0 24 24" fill="none" xmlns="http://www.w3.org/2000/svg">
<g clip-path="url(#clip0_152_492)">
<g clip-path="url(#clip1_152_492)">
<path d="M4.574 1.89967C4.94327 1.89649 5.30918 1.96995 5.64861 2.11539C5.98804 2.26084 6.29361 2.47511 6.546 2.74467C7.07 3.26967 7.388 3.97267 7.353 4.71667C7.35135 5.08887 7.276 5.45705 7.13131 5.79998C6.98663 6.1429 6.77546 6.45378 6.51 6.71467C5.984 7.24067 5.314 7.52467 4.608 7.52467H4.545L4.412 7.52567C3.744 7.51867 3.064 7.20767 2.572 6.71467C2.30591 6.45322 2.09437 6.14154 1.94966 5.79771C1.80495 5.45387 1.72994 5.08472 1.729 4.71167C1.729 3.97267 2.01 3.26967 2.571 2.70867C2.83433 2.44745 3.14711 2.24136 3.49103 2.10245C3.83495 1.96354 4.20312 1.89461 4.574 1.89967ZM4.574 2.77767C4.022 2.77767 3.54 2.97267 3.188 3.32467C3.003 3.50507 2.85614 3.72081 2.75616 3.95908C2.65618 4.19735 2.60512 4.45328 2.606 4.71167C2.606 5.22967 2.801 5.74367 3.184 6.09567L3.187 6.09867C3.54 6.45067 4.056 6.64567 4.54 6.64567H4.735C5.173 6.61967 5.581 6.41067 5.894 6.09867L5.896 6.09567C6.28 5.74367 6.475 5.22967 6.475 4.71167C6.4759 4.45337 6.42495 4.19751 6.32515 3.95926C6.22535 3.72101 6.07874 3.50522 5.894 3.32467C5.54326 2.97554 5.06889 2.77896 4.574 2.77767ZM5.897 8.00167C6.495 8.00167 7.013 8.52067 7.014 9.11767V21.0177C7.014 21.5827 6.493 22.0997 5.897 22.1007H3.185C2.89076 22.0943 2.61033 21.9746 2.40222 21.7665C2.19411 21.5583 2.07438 21.2779 2.068 20.9837V9.11767C2.068 8.48867 2.552 8.00167 3.151 8.00167H5.897ZM3.151 8.87967C3.101 8.87967 3.051 8.90467 3.011 8.95067C2.97038 8.99697 2.94737 9.0561 2.946 9.11767V20.9837C2.946 21.0357 2.973 21.0967 3.022 21.1457C3.072 21.1957 3.132 21.2217 3.185 21.2227H5.897C5.957 21.2227 6.017 21.1987 6.064 21.1577C6.08536 21.1409 6.10285 21.1197 6.11527 21.0955C6.1277 21.0714 6.13477 21.0448 6.136 21.0177V9.11767C6.1324 9.05592 6.10519 8.99792 6.06 8.95567C6.01751 8.91026 5.95911 8.88303 5.897 8.87967H3.151ZM17.422 7.66567C20.157 7.66567 22.268 9.81268 22.269 12.5787V21.3257C22.269 21.5277 22.169 21.7217 22.027 21.8627C21.8864 22.0103 21.6937 22.0972 21.49 22.1047H18.1C17.8963 22.0973 17.7035 22.0104 17.563 21.8627C17.4161 21.7218 17.33 21.5291 17.323 21.3257V14.0367C17.323 13.4387 17.189 12.9987 16.881 12.7217L16.877 12.7177C16.6987 12.5418 16.4874 12.4029 16.2551 12.309C16.0229 12.2151 15.7745 12.1681 15.524 12.1707C14.536 12.1707 13.76 13.0007 13.76 14.0707V21.3937C13.7588 21.495 13.7346 21.5947 13.6892 21.6853C13.6438 21.7759 13.5784 21.855 13.498 21.9167C13.3512 22.0345 13.1692 22.0999 12.981 22.1027H9.252C9.06412 22.0997 8.88257 22.0343 8.736 21.9167C8.65576 21.8549 8.59058 21.7758 8.54536 21.6852C8.50015 21.5946 8.4761 21.4949 8.475 21.3937V8.74867C8.475 8.52667 8.585 8.34067 8.733 8.21167C8.87634 8.0839 9.06007 8.01062 9.252 8.00467H12.642C12.845 8.00467 13.038 8.10467 13.179 8.24567C13.3258 8.38625 13.4119 8.57856 13.419 8.78167V9.00667C14.2983 8.14628 15.4798 7.66484 16.71 7.66567H17.422ZM16.744 8.54367C15.521 8.54367 14.366 9.13968 13.707 10.0617L13.702 10.0677L13.696 10.0737L13.662 10.1067L12.747 11.0227L12.577 11.1927V8.88267H9.385V21.2257H12.914V14.0697C12.914 12.5257 14.074 11.3267 15.554 11.2917H15.557C15.9226 11.29 16.2849 11.3607 16.623 11.4997C16.9611 11.6388 17.2683 11.8433 17.527 12.1017C17.991 12.5667 18.199 13.2057 18.199 14.0357L18.233 21.2247H21.39V12.5777C21.39 10.3247 19.668 8.54267 17.455 8.54267H16.743L16.744 8.54367Z" fill="#1F1F23" stroke="#1F1F23" stroke-width="0.2"/>
</g>
</g>
<defs>
<clipPath id="clip0_152_492">
<rect width="24" height="24" fill="white"/>
</clipPath>
<clipPath id="clip1_152_492">
<rect width="24" height="24" fill="white"/>
</clipPath>
</defs>
</svg>
