<svg width="90" height="90" viewBox="0 0 90 90" fill="none" xmlns="http://www.w3.org/2000/svg">
<path d="M45 0.5C69.5767 0.5 89.5 20.4233 89.5 45C89.5 69.5767 69.5767 89.5 45 89.5C20.4233 89.5 0.5 69.5767 0.5 45C0.5 20.4233 20.4233 0.5 45 0.5Z" fill="#FFEAE7"/>
<path d="M45 0.5C69.5767 0.5 89.5 20.4233 89.5 45C89.5 69.5767 69.5767 89.5 45 89.5C20.4233 89.5 0.5 69.5767 0.5 45C0.5 20.4233 20.4233 0.5 45 0.5Z" stroke="#FF4B33"/>
<path d="M41.8734 41.8733C41.041 42.7014 40.5711 43.8258 40.5668 45C40.5668 46.1758 41.0339 47.3034 41.8653 48.1348C42.6967 48.9662 43.8243 49.4333 45.0001 49.4333C46.1742 49.429 47.2987 48.959 48.1268 48.1266" stroke="#FF4B33" stroke-width="3" stroke-linecap="round" stroke-linejoin="round"/>
<path d="M45.0001 31.7C42.3696 31.7 39.7982 32.48 37.611 33.9414C35.4238 35.4028 33.7191 37.48 32.7125 39.9103C31.7058 42.3405 31.4425 45.0147 31.9556 47.5947C32.4688 50.1746 33.7355 52.5444 35.5956 54.4045C37.4556 56.2645 39.8254 57.5312 42.4054 58.0444C44.9853 58.5576 47.6595 58.2942 50.0898 57.2875C52.52 56.2809 54.5972 54.5762 56.0586 52.389C57.52 50.2019 58.3001 47.6304 58.3001 45" stroke="#FF4B33" stroke-width="3" stroke-linecap="round" stroke-linejoin="round"/>
<path d="M45.0001 22.8333C40.6159 22.8333 36.3302 24.1333 32.6849 26.569C29.0396 29.0047 26.1985 32.4667 24.5207 36.5171C22.843 40.5675 22.404 45.0245 23.2593 49.3244C24.1146 53.6243 26.2258 57.5741 29.3259 60.6741C32.4259 63.7742 36.3756 65.8854 40.6755 66.7407C44.9755 67.596 49.4324 67.157 53.4829 65.4792C57.5333 63.8015 60.9953 60.9603 63.431 57.3151C65.8667 53.6698 67.1667 49.3841 67.1667 44.9999M53.2251 36.7773L47.2167 42.7833" stroke="#FF4B33" stroke-width="3" stroke-linecap="round" stroke-linejoin="round"/>
<path d="M65.86 30.6358L58.3 31.6998L59.364 24.1398C59.3718 24.052 59.3533 23.9639 59.3107 23.8866C59.2682 23.8094 59.2036 23.7466 59.1252 23.7063C59.0468 23.666 58.9582 23.65 58.8706 23.6603C58.7831 23.6706 58.7006 23.7067 58.6337 23.7641L53.6217 28.7505C53.1069 29.269 52.7282 29.9067 52.5194 30.6069C52.3106 31.3071 52.278 32.048 52.4247 32.7638L53.2227 36.7771L57.236 37.5728C57.9518 37.7195 58.6928 37.6869 59.3929 37.4781C60.0931 37.2693 60.7308 36.8906 61.2494 36.3758L66.2334 31.3661C66.291 31.2991 66.3272 31.2164 66.3375 31.1286C66.3477 31.0408 66.3315 30.9519 66.2909 30.8734C66.2502 30.7949 66.1871 30.7303 66.1095 30.688C66.0318 30.6456 65.9434 30.6275 65.8554 30.6358" stroke="#FF4B33" stroke-width="3" stroke-linecap="round" stroke-linejoin="round"/>
</svg>
