<svg width="90" height="90" viewBox="0 0 90 90" fill="none" xmlns="http://www.w3.org/2000/svg">
<path d="M45 0.5C69.5767 0.5 89.5 20.4233 89.5 45C89.5 69.5767 69.5767 89.5 45 89.5C20.4233 89.5 0.5 69.5767 0.5 45C0.5 20.4233 20.4233 0.5 45 0.5Z" fill="#D7FBFA"/>
<path d="M45 0.5C69.5767 0.5 89.5 20.4233 89.5 45C89.5 69.5767 69.5767 89.5 45 89.5C20.4233 89.5 0.5 69.5767 0.5 45C0.5 20.4233 20.4233 0.5 45 0.5Z" stroke="#00B8B3"/>
<path d="M59.1399 68.7066H30.8599C26.3099 68.7066 22.8333 67.0499 21.0599 64.0632C19.3099 61.0765 19.5433 57.2265 21.7599 53.2599L35.8999 27.8032C38.2333 23.6032 41.4533 21.2932 44.9999 21.2932C48.5466 21.2932 51.7666 23.6032 54.0999 27.8032L68.2399 53.2599C70.4566 57.2499 70.7133 61.0765 68.9399 64.0632C67.1666 67.0499 63.6899 68.7066 59.1399 68.7066ZM44.9999 24.7932C42.8066 24.7932 40.6599 26.4732 38.9566 29.5065L24.8399 54.9632C23.2533 57.8099 22.9966 60.4232 24.0933 62.3132C25.1899 64.1799 27.6166 65.2299 30.8833 65.2299H59.1633C62.4299 65.2299 64.8333 64.2032 65.9533 62.3132C67.0499 60.4232 66.7933 57.8332 65.2066 54.9632L51.0433 29.5065C49.3399 26.4732 47.1933 24.7932 44.9999 24.7932Z" fill="#00B8B3"/>
<path d="M67.0268 65.4166C66.6768 65.4166 66.3268 65.3232 66.0234 65.0899L45.0001 50.3666L23.9768 65.0899C23.1834 65.6499 22.0868 65.4632 21.5501 64.6699C20.9901 63.8766 21.1768 62.7799 21.9701 62.2432L43.9968 46.8199C44.6034 46.3999 45.3968 46.3999 46.0034 46.8199L68.0301 62.2432C68.8234 62.8032 69.0101 63.8999 68.4501 64.6699C68.1234 65.1599 67.5868 65.4166 67.0268 65.4166Z" fill="#00B8B3"/>
<path d="M45 49.9933C44.0433 49.9933 43.25 49.2 43.25 48.2433V24C43.25 23.0433 44.0433 22.25 45 22.25C45.9567 22.25 46.75 23.0433 46.75 24V48.2433C46.75 49.2 45.9567 49.9933 45 49.9933Z" fill="#00B8B3"/>
</svg>
