<svg width="90" height="90" viewBox="0 0 90 90" fill="none" xmlns="http://www.w3.org/2000/svg">
<path d="M45 0.5C69.5767 0.5 89.5 20.4233 89.5 45C89.5 69.5767 69.5767 89.5 45 89.5C20.4233 89.5 0.5 69.5767 0.5 45C0.5 20.4233 20.4233 0.5 45 0.5Z" fill="#014C4A"/>
<path d="M45 0.5C69.5767 0.5 89.5 20.4233 89.5 45C89.5 69.5767 69.5767 89.5 45 89.5C20.4233 89.5 0.5 69.5767 0.5 45C0.5 20.4233 20.4233 0.5 45 0.5Z" stroke="#17E6E0"/>
<path d="M59.14 68.7066H30.86C26.31 68.7066 22.8333 67.0499 21.06 64.0632C19.31 61.0765 19.5433 57.2265 21.76 53.2599L35.9 27.8032C38.2333 23.6032 41.4533 21.2932 45 21.2932C48.5467 21.2932 51.7667 23.6032 54.1 27.8032L68.24 53.2599C70.4567 57.2499 70.7133 61.0765 68.94 64.0632C67.1667 67.0499 63.69 68.7066 59.14 68.7066ZM45 24.7932C42.8067 24.7932 40.66 26.4732 38.9567 29.5065L24.84 54.9632C23.2533 57.8099 22.9967 60.4232 24.0933 62.3132C25.19 64.1799 27.6167 65.2299 30.8833 65.2299H59.1633C62.43 65.2299 64.8333 64.2032 65.9533 62.3132C67.05 60.4232 66.7933 57.8332 65.2067 54.9632L51.0433 29.5065C49.34 26.4732 47.1933 24.7932 45 24.7932Z" fill="#17E6E0"/>
<path d="M67.0267 65.4166C66.6767 65.4166 66.3267 65.3232 66.0233 65.0899L45 50.3666L23.9767 65.0899C23.1833 65.6499 22.0867 65.4632 21.55 64.6699C20.99 63.8766 21.1767 62.7799 21.97 62.2432L43.9967 46.8199C44.6033 46.3999 45.3967 46.3999 46.0033 46.8199L68.03 62.2432C68.8233 62.8032 69.01 63.8999 68.45 64.6699C68.1233 65.1599 67.5867 65.4166 67.0267 65.4166Z" fill="#17E6E0"/>
<path d="M45 49.9933C44.0433 49.9933 43.25 49.2 43.25 48.2433V24C43.25 23.0433 44.0433 22.25 45 22.25C45.9567 22.25 46.75 23.0433 46.75 24V48.2433C46.75 49.2 45.9567 49.9933 45 49.9933Z" fill="#17E6E0"/>
</svg>
