<svg width="90" height="90" viewBox="0 0 90 90" fill="none" xmlns="http://www.w3.org/2000/svg">
<path d="M45 0.5C69.5767 0.5 89.5 20.4233 89.5 45C89.5 69.5767 69.5767 89.5 45 89.5C20.4233 89.5 0.5 69.5767 0.5 45C0.5 20.4233 20.4233 0.5 45 0.5Z" fill="#002B1B"/>
<path d="M45 0.5C69.5767 0.5 89.5 20.4233 89.5 45C89.5 69.5767 69.5767 89.5 45 89.5C20.4233 89.5 0.5 69.5767 0.5 45C0.5 20.4233 20.4233 0.5 45 0.5Z" stroke="#00D084"/>
<path d="M47.3333 39.75H33.3333C32.3766 39.75 31.5833 38.9567 31.5833 38C31.5833 37.0433 32.3766 36.25 33.3333 36.25H47.3333C48.29 36.25 49.0833 37.0433 49.0833 38C49.0833 38.9567 48.29 39.75 47.3333 39.75Z" fill="#00D084"/>
<path d="M61.4264 51.5332C57.903 51.5332 54.9164 48.9198 54.6364 45.5598C54.4498 43.6232 55.1498 41.7332 56.5498 40.3565C57.7165 39.1432 59.373 38.4666 61.123 38.4666H65.9998C68.3098 38.5366 70.0831 40.3565 70.0831 42.5965V47.4033C70.0831 49.6433 68.3098 51.4632 66.0698 51.5332H61.4264ZM65.9297 41.9666H61.1464C60.3297 41.9666 59.5831 42.2699 59.0465 42.8299C58.3698 43.4832 58.0431 44.3698 58.1364 45.2565C58.2531 46.7965 59.7464 48.0332 61.4264 48.0332H65.9998C66.3031 48.0332 66.5831 47.7533 66.5831 47.4033V42.5965C66.5831 42.2465 66.303 41.9899 65.9297 41.9666Z" fill="#00D084"/>
<path d="M54.3334 66.5834H33.3334C25.3067 66.5834 19.9167 61.1934 19.9167 53.1667V36.8334C19.9167 29.6467 24.35 24.4434 31.2333 23.5801C31.8633 23.4868 32.5867 23.4167 33.3334 23.4167H54.3334C54.8934 23.4167 55.6167 23.4401 56.3633 23.5567C63.2467 24.3501 67.75 29.5767 67.75 36.8334V40.2168C67.75 41.1734 66.9567 41.9668 66 41.9668H61.1466C60.33 41.9668 59.5834 42.2701 59.0467 42.8301L59.0234 42.8535C58.37 43.4835 58.0667 44.3467 58.1367 45.2334C58.2534 46.7734 59.7466 48.01 61.4266 48.01H66C66.9567 48.01 67.75 48.8034 67.75 49.76V53.1434C67.75 61.1934 62.36 66.5834 54.3334 66.5834ZM33.3334 26.9167C32.7734 26.9167 32.2367 26.9634 31.7 27.0334C26.5667 27.6867 23.4167 31.4201 23.4167 36.8334V53.1667C23.4167 59.1867 27.3134 63.0834 33.3334 63.0834H54.3334C60.3534 63.0834 64.25 59.1867 64.25 53.1667V51.5334H61.4266C57.9033 51.5334 54.9167 48.9201 54.6367 45.5601C54.45 43.6467 55.15 41.7335 56.55 40.3801C57.7634 39.1435 59.3966 38.4668 61.1466 38.4668H64.25V36.8334C64.25 31.3734 61.0533 27.6167 55.8733 27.01C55.3133 26.9167 54.8234 26.9167 54.3334 26.9167H33.3334Z" fill="#00D084"/>
</svg>
