<svg width="26" height="30" viewBox="0 0 26 30" fill="none" xmlns="http://www.w3.org/2000/svg">
<path d="M18.5595 0C18.5595 2.85959 18.5364 5.5276 18.5768 8.18988C18.6044 8.44755 18.546 8.70709 18.4106 8.92869C18.2752 9.15029 18.0703 9.32172 17.8272 9.41666C12.8862 12.0589 7.96541 14.7355 3.03017 17.3835C1.61762 18.1384 0.435687 19.145 0.205068 20.7607C0.0119453 22.1025 -0.00549354 23.4635 0.153181 24.8098C0.260597 25.5758 0.658584 26.2723 1.26593 26.7572C2.94945 27.9153 4.77134 28.8762 6.68547 30C6.68547 27.5693 6.68547 25.3646 6.68547 23.1599C6.66266 22.9791 6.69984 22.7959 6.79139 22.638C6.88294 22.4801 7.02388 22.3561 7.19284 22.2848C10.7645 20.3775 14.3218 18.4472 17.8849 16.5285C18.078 16.4255 18.2914 16.3597 18.5998 16.2425V29.9685C20.4332 28.9134 22.1831 27.9926 23.8406 26.9288C24.8121 26.3026 25.2215 25.2474 25.2244 24.0864C25.2244 18.0107 25.2244 11.9331 25.2244 5.8536C25.2487 5.2747 25.1203 4.69952 24.8518 4.18495C24.5834 3.67038 24.1841 3.23423 23.6936 2.91965C22.0793 1.90164 20.39 1.04375 18.5595 0ZM12.1483 0.0714898C8.81294 1.88733 5.53526 3.64313 2.28641 5.45611C1.33114 5.98209 0.623613 6.86067 0.317499 7.90106C-0.259048 9.79411 0.156064 11.7215 0.00904448 13.8176C3.5404 11.8816 6.88726 10.1001 10.188 8.20704C10.7249 7.91408 11.1812 7.495 11.5169 6.98649C11.8526 6.47798 12.0575 5.89555 12.1137 5.29025C12.252 3.61739 12.1483 1.90163 12.1483 0.0714898Z" fill="#FF5B45"/>
</svg>
